<svg xmlns="http://www.w3.org/2000/svg" viewBox="0 0 512 512" style="enable-background:new 0 0 512 512" xml:space="preserve"><path style="fill:#52b2fc" d="M427.716 204.949h37.372c13.869 0 25.216-11.347 25.216-25.216v-21.541c0-13.869-11.347-25.216-25.216-25.216h-37.372"/><path style="fill:#11544f" d="M465.089 219.199h-37.374V190.7h37.374c6.046 0 10.965-4.919 10.965-10.965v-21.54c0-6.047-4.919-10.966-10.965-10.966h-37.374V118.73h37.374c21.76 0 39.464 17.705 39.464 39.465v21.54c0 21.76-17.703 39.464-39.464 39.464z"/><path style="fill:#11544f" d="M465.089 306.234h-37.374v-28.499h37.374c6.046 0 10.965-4.919 10.965-10.965v-21.541c0-6.046-4.919-10.965-10.965-10.965h-37.374v-28.499h37.374c21.76 0 39.464 17.704 39.464 39.464v21.541c0 21.761-17.703 39.464-39.464 39.464zM490.304 108.38c-7.869 0-14.249-6.381-14.249-14.249v-7.29c0-6.046-4.919-10.965-10.965-10.965h-35.949c-7.869 0-14.25-6.381-14.25-14.249s6.381-14.249 14.25-14.249h35.949c21.76 0 39.464 17.704 39.464 39.464v7.29c-.001 7.867-6.382 14.248-14.25 14.248z"/><path style="fill:#52b2fc" d="M427.716 374.299h37.372c13.869 0 25.216-11.347 25.216-25.216v-21.541c0-13.869-11.347-25.216-25.216-25.216h-37.372"/><path style="fill:#11544f" d="M465.089 388.548h-37.374v-28.499h37.374c6.046 0 10.965-4.919 10.965-10.965v-21.541c0-6.046-4.919-10.965-10.965-10.965h-37.374v-28.499h37.374c21.76 0 39.464 17.704 39.464 39.464v21.541c0 21.761-17.703 39.464-39.464 39.464zM77.977 103.708H21.696c-7.87 0-14.249-6.381-14.249-14.249S13.826 75.21 21.696 75.21h56.281c7.87 0 14.249 6.381 14.249 14.249s-6.379 14.249-14.249 14.249zM77.977 214.736H21.696c-7.87 0-14.249-6.381-14.249-14.249s6.379-14.249 14.249-14.249h56.281c7.87 0 14.249 6.381 14.249 14.249s-6.379 14.249-14.249 14.249zM77.977 325.762H21.696c-7.87 0-14.249-6.381-14.249-14.249 0-7.869 6.379-14.25 14.249-14.25h56.281c7.87 0 14.249 6.381 14.249 14.25.001 7.868-6.379 14.249-14.249 14.249zM312.997 436.79H21.696c-7.87 0-14.249-6.381-14.249-14.249 0-7.869 6.379-14.25 14.249-14.25h291.302c7.869 0 14.25 6.381 14.25 14.25 0 7.868-6.381 14.249-14.251 14.249z"/><path style="fill:#11544f" d="M382.508 512H94.068c-32.785 0-59.459-26.674-59.459-59.46V59.46C34.609 26.674 61.281 0 94.068 0h288.44c32.785 0 59.459 26.674 59.459 59.46v393.08c-.002 32.786-26.675 59.46-59.459 59.46zM94.068 28.499c-17.071 0-30.96 13.889-30.96 30.961v393.08c0 17.071 13.889 30.961 30.96 30.961h288.44c17.071 0 30.96-13.889 30.96-30.961V59.46c0-17.071-13.888-30.961-30.96-30.961H94.068z"/><path style="fill:#52b2fc" d="m206.773 190.567-14.1 14.101c.658 1.207 1.311 2.511 2.05 3.826 6.713 12.105 15.858 28.669 33.29 46.101 17.476 17.47 34.046 26.679 46.151 33.387 1.272.722 2.105 1.019 3.294 1.676l12.433-13.228 1.371-1.371c10.48-10.48 27.472-10.48 37.952 0l28.003 28.003c10.539 10.539 10.472 27.647-.151 38.102l-5.596 5.509c-4.588 3.588-9.925 6.63-15.615 8.859-5.435 2.06-10.64 3.377-15.82 3.949-41.614 5.033-79.653-13.979-131.269-65.573-71.319-71.342-65.955-128.831-65.677-131.316.636-5.392 1.927-10.569 3.966-15.837 2.207-5.647 5.295-11.031 8.883-15.596l5.505-5.599c10.453-10.632 27.568-10.704 38.112-.161l27.217 27.217c10.479 10.479 10.48 27.471.001 37.951z"/><path style="fill:#11544f" d="M307.299 374.508c-40.689 0-79.15-21.092-128.605-70.525-74.958-74.979-70.519-136.237-69.766-142.975.789-6.703 2.368-13.02 4.836-19.396 2.702-6.912 6.488-13.556 10.968-19.258.326-.413.674-.809 1.043-1.184l5.505-5.6c7.787-7.921 18.192-12.282 29.298-12.282 10.974 0 21.292 4.275 29.052 12.034l27.218 27.218c16.019 16.019 16.019 42.083 0 58.102l-6.538 6.539c6.174 10.899 14.174 23.734 27.778 37.337 13.232 13.228 26.068 21.397 36.514 27.373l4.906-5.221c.1-.105.201-.209.304-.312l1.369-1.371c7.766-7.765 18.083-12.038 29.058-12.038 10.975 0 21.292 4.273 29.053 12.032l28.002 28.002c7.804 7.804 12.078 18.18 12.034 29.216-.044 11.036-4.4 21.377-12.265 29.119l-5.594 5.507c-.386.38-.794.738-1.218 1.072-5.67 4.433-12.309 8.203-19.197 10.901l-.148.057c-6.632 2.514-12.923 4.075-19.23 4.778-4.826.58-9.662.875-14.377.875zM146.694 140.543a47.965 47.965 0 0 0-6.368 11.398c-1.575 4.068-2.589 8.112-3.085 12.319-.041.419-4.661 53.287 61.603 119.572 43.601 43.582 76.037 62.179 108.454 62.179 3.598 0 7.309-.228 11.025-.678l.151-.017c3.89-.429 7.9-1.436 12.253-3.081 4.081-1.606 7.994-3.785 11.367-6.327l4.974-4.899a12.509 12.509 0 0 0 3.759-8.922 12.5 12.5 0 0 0-3.688-8.95l-28.002-28.002a12.503 12.503 0 0 0-8.9-3.686c-3.361 0-6.523 1.31-8.902 3.686l-1.211 1.213-12.282 13.07a14.252 14.252 0 0 1-17.275 2.713c-.279-.154-.522-.264-.762-.379a40.491 40.491 0 0 1-2.608-1.339c-12.095-6.702-30.343-16.827-49.26-35.739-18.758-18.757-28.476-36.282-35.572-49.078l-.104-.19c-.466-.826-.939-1.723-1.398-2.595a92.447 92.447 0 0 0-.707-1.328 14.255 14.255 0 0 1 2.438-16.889l14.1-14.101c4.908-4.908 4.908-12.893 0-17.799l-27.217-27.218a12.505 12.505 0 0 0-8.9-3.688c-3.403 0-6.59 1.337-8.976 3.763l-4.907 4.992z"/></svg>